<svg width="443" height="135" viewBox="0 0 443 135" fill="none" xmlns="http://www.w3.org/2000/svg">
<g filter="url(#filter0_d_4_1716)">
<path d="M49.4083 20.1684C49.4083 14.5526 44.8857 10 39.3066 10C33.7276 10 29.2049 14.5526 29.2049 20.1684V106.754C29.2049 112.37 33.7276 116.923 39.3066 116.923C44.8857 116.923 49.4083 112.37 49.4083 106.754V20.1684Z" fill="white"/>
<path d="M84.3659 30.3196C89.9496 30.3196 94.4761 25.7709 94.4761 20.1598C94.4761 14.5487 89.9496 10 84.3659 10L19.1103 10C13.5265 10 8.99999 14.5487 8.99999 20.1598C8.99999 25.7709 13.5265 30.3196 19.1103 30.3196L84.3659 30.3196Z" fill="white"/>
<path d="M96.0999 55.9468C90.1066 55.957 84.2508 57.7538 79.2725 61.11C74.2942 64.4663 70.4168 69.2314 68.1302 74.8033C65.8437 80.3751 65.2507 86.5036 66.4261 92.4143C67.6016 98.325 70.4927 103.753 74.7342 108.011C78.9757 112.27 84.3772 115.169 90.256 116.341C96.1349 117.513 102.227 116.906 107.763 114.597C113.3 112.288 118.031 108.38 121.36 103.368C124.688 98.3551 126.465 92.4626 126.465 86.4349C126.465 82.4268 125.679 78.458 124.152 74.7557C122.626 71.0533 120.388 67.6901 117.568 64.8583C114.748 62.0266 111.4 59.7819 107.716 58.2528C104.032 56.7236 100.085 55.94 96.0999 55.9468ZM96.0999 96.6033C94.1063 96.5762 92.1652 95.9569 90.5206 94.8232C88.8761 93.6895 87.6015 92.0921 86.8572 90.2319C86.1129 88.3716 85.9321 86.3316 86.3375 84.3682C86.7429 82.4049 87.7164 80.6059 89.1356 79.1976C90.5549 77.7892 92.3564 76.8343 94.3138 76.453C96.2712 76.0716 98.297 76.2809 100.136 77.0543C101.976 77.8278 103.547 79.1311 104.652 80.8001C105.757 82.4692 106.347 84.4296 106.347 86.4349C106.347 87.7818 106.081 89.1154 105.564 90.3582C105.048 91.6009 104.291 92.728 103.337 93.674C102.384 94.6201 101.253 95.3662 100.011 95.8691C98.7685 96.3719 97.439 96.6215 96.0999 96.6033Z" fill="white"/>
<path d="M363.355 10.2748V106.772C363.462 109.394 364.573 111.873 366.456 113.69C368.339 115.507 370.847 116.522 373.457 116.522C376.066 116.522 378.575 115.507 380.457 113.69C382.34 111.873 383.451 109.394 383.559 106.772V10.2748H363.355Z" fill="white"/>
<path d="M160.775 10.2062H180.978V106.772C180.978 108.107 180.717 109.429 180.208 110.663C179.7 111.897 178.956 113.018 178.017 113.962C177.078 114.906 175.963 115.655 174.737 116.166C173.51 116.677 172.196 116.94 170.868 116.94C168.186 116.94 165.615 115.869 163.719 113.962C161.823 112.055 160.758 109.469 160.758 106.772V10.2062H160.775Z" fill="white"/>
<path d="M416.127 60.6189C418.6 57.7531 420.512 54.443 421.763 50.8628C423.374 46.27 423.869 41.356 423.205 36.5316C422.542 31.7072 420.739 27.1127 417.949 23.1323C415.158 19.152 411.461 15.9015 407.165 13.6527C402.87 11.4039 398.102 10.2222 393.259 10.2063H352.613C349.965 10.181 347.409 11.1883 345.483 13.0168C343.556 14.8453 342.409 17.3531 342.281 20.014C342.224 21.375 342.439 22.7336 342.914 24.0093C343.389 25.2851 344.114 26.4518 345.045 27.4403C345.977 28.4288 347.097 29.2189 348.339 29.7637C349.58 30.3085 350.917 30.5969 352.272 30.6118H392.918C395.592 30.5787 398.173 31.5985 400.11 33.4535C402.047 35.3084 403.186 37.8516 403.284 40.5398C403.284 40.7631 403.284 40.9864 403.284 41.2097C403.135 43.8614 401.973 46.3527 400.042 48.164C398.11 49.9753 395.558 50.9667 392.918 50.9315H363.099C360.453 50.906 357.9 51.9109 355.974 53.7358C354.049 55.5607 352.899 58.0641 352.767 60.722C352.717 62.0874 352.94 63.4489 353.424 64.7254C353.909 66.0019 354.644 67.1671 355.586 68.1515C356.528 69.1359 357.658 69.9192 358.908 70.4547C360.157 70.9902 361.502 71.2669 362.86 71.2683H393.755C395.066 71.2408 396.37 71.4775 397.59 71.9646C398.809 72.4516 399.92 73.1791 400.855 74.1042C401.791 75.0293 402.533 76.1333 403.039 77.3513C403.544 78.5693 403.801 79.8766 403.797 81.1962V106.772C403.794 108.106 404.054 109.427 404.56 110.659C405.067 111.892 405.81 113.012 406.748 113.955C407.685 114.898 408.799 115.646 410.025 116.155C411.25 116.664 412.564 116.925 413.89 116.923C415.217 116.925 416.531 116.664 417.757 116.155C418.984 115.646 420.099 114.899 421.038 113.956C421.977 113.013 422.722 111.893 423.23 110.661C423.738 109.428 424 108.106 424 106.772V81.1275C424.009 73.5433 421.202 66.229 416.127 60.6189Z" fill="white"/>
<path d="M219.063 30.6117C216.983 24.6498 213.114 19.4845 207.989 15.8292C202.865 12.174 196.739 10.2092 190.457 10.2062H149.572C146.89 10.2062 144.319 11.2775 142.423 13.1845C140.527 15.0914 139.461 17.6778 139.461 20.3746C139.461 23.0715 140.527 25.6578 142.423 27.5648C144.319 29.4717 146.89 30.543 149.572 30.543H190.457C191.818 30.4867 193.177 30.7078 194.452 31.193C195.726 31.6782 196.89 32.4175 197.873 33.3665C198.856 34.3155 199.638 35.4545 200.173 36.7153C200.707 37.976 200.982 39.3324 200.982 40.7029C200.982 42.0734 200.707 43.4297 200.173 44.6905C199.638 45.9512 198.856 47.0903 197.873 48.0393C196.89 48.9882 195.726 49.7275 194.452 50.2127C193.177 50.6979 191.818 50.919 190.457 50.8627H160.143C157.462 50.8627 154.89 51.934 152.994 53.8409C151.098 55.7479 150.033 58.3343 150.033 61.0311C150.033 63.7279 151.098 66.3143 152.994 68.2212C154.89 70.1282 157.462 71.1995 160.143 71.1995H190.457C195.298 71.1924 200.068 70.0203 204.367 67.7812C208.667 65.542 212.371 62.3007 215.171 58.3281C217.971 54.3554 219.785 49.7667 220.462 44.945C221.139 40.1234 220.659 35.2088 219.063 30.6117Z" fill="white"/>
<path d="M321.907 10.6699C319.229 10.6744 316.662 11.7477 314.769 13.6542C312.877 15.5606 311.814 18.1444 311.814 20.8383V86.4348C311.87 87.8042 311.65 89.1708 311.168 90.4525C310.686 91.7343 309.95 92.9047 309.007 93.8935C308.063 94.8823 306.931 95.6691 305.677 96.2065C304.424 96.744 303.075 97.021 301.712 97.021C300.35 97.021 299.001 96.744 297.748 96.2065C296.494 95.6691 295.362 94.8823 294.418 93.8935C293.475 92.9047 292.739 91.7343 292.257 90.4525C291.775 89.1708 291.555 87.8042 291.611 86.4348V39.1483V37.4822C291.504 34.8599 290.392 32.3809 288.51 30.5636C286.627 28.7463 284.119 27.7316 281.509 27.7316C278.9 27.7316 276.391 28.7463 274.508 30.5636C272.626 32.3809 271.515 34.8599 271.407 37.4822V39.1998V86.4863C271.463 87.8557 271.243 89.2223 270.761 90.504C270.279 91.7858 269.544 92.9562 268.6 93.945C267.656 94.9338 266.524 95.7206 265.27 96.2581C264.017 96.7955 262.668 97.0726 261.306 97.0726C259.943 97.0726 258.594 96.7955 257.341 96.2581C256.087 95.7206 254.955 94.9338 254.011 93.945C253.068 92.9562 252.333 91.7858 251.85 90.504C251.368 89.2223 251.148 87.8557 251.204 86.4863V20.8898C251.26 19.5204 251.04 18.1538 250.558 16.8721C250.075 15.5903 249.34 14.4199 248.397 13.4311C247.453 12.4423 246.32 11.6555 245.067 11.1181C243.813 10.5806 242.465 10.3036 241.102 10.3036C239.739 10.3036 238.391 10.5806 237.137 11.1181C235.884 11.6555 234.751 12.4423 233.808 13.4311C232.864 14.4199 232.129 15.5903 231.647 16.8721C231.164 18.1538 230.944 19.5204 231 20.8898V86.4863C231.004 92.7928 232.951 98.9432 236.571 104.092C240.192 109.241 245.31 113.135 251.221 115.24C256.347 117.063 261.866 117.465 267.199 116.404C272.533 115.343 277.485 112.859 281.535 109.211C285.899 113.146 291.304 115.725 297.095 116.635C302.887 117.545 308.816 116.746 314.165 114.336C319.515 111.926 324.055 108.007 327.235 103.055C330.416 98.1033 332.101 92.3301 332.086 86.4348V20.8383C332.086 19.4971 331.822 18.1692 331.31 16.9311C330.798 15.6929 330.047 14.5688 329.101 13.6237C328.155 12.6786 327.032 11.931 325.797 11.4241C324.563 10.9171 323.241 10.6608 321.907 10.6699Z" fill="white"/>
</g>
<defs>
<filter id="filter0_d_4_1716" x="0" y="0" width="443" height="135" filterUnits="userSpaceOnUse" color-interpolation-filters="sRGB">
<feFlood flood-opacity="0" result="BackgroundImageFix"/>
<feColorMatrix in="SourceAlpha" type="matrix" values="0 0 0 0 0 0 0 0 0 0 0 0 0 0 0 0 0 0 127 0" result="hardAlpha"/>
<feOffset dx="5" dy="4"/>
<feGaussianBlur stdDeviation="7"/>
<feComposite in2="hardAlpha" operator="out"/>
<feColorMatrix type="matrix" values="0 0 0 0 0.858824 0 0 0 0 0.168628 0 0 0 0 0.0627451 0 0 0 0.4 0"/>
<feBlend mode="normal" in2="BackgroundImageFix" result="effect1_dropShadow_4_1716"/>
<feBlend mode="normal" in="SourceGraphic" in2="effect1_dropShadow_4_1716" result="shape"/>
</filter>
</defs>
</svg>
