<?xml version="1.0" encoding="UTF-8" standalone="no"?>
<svg
   xmlns:dc="http://purl.org/dc/elements/1.1/"
   xmlns:cc="http://creativecommons.org/ns#"
   xmlns:rdf="http://www.w3.org/1999/02/22-rdf-syntax-ns#"
   xmlns:svg="http://www.w3.org/2000/svg"
   xmlns="http://www.w3.org/2000/svg"
   id="svg8"
   version="1.1"
   viewBox="0 0 140.01401 109.695"
   height="109.695mm"
   width="140.01401mm">
  <defs
     id="defs2" />
  <metadata
     id="metadata5">
    <rdf:RDF>
      <cc:Work
         rdf:about="">
        <dc:format>image/svg+xml</dc:format>
        <dc:type
           rdf:resource="http://purl.org/dc/dcmitype/StillImage" />
        <dc:title></dc:title>
      </cc:Work>
    </rdf:RDF>
  </metadata>
  <g
     transform="translate(0,-187.305)"
     id="layer1">
    <g
       style="fill:#ffffff"
       id="layer1-6"
       transform="translate(145.92384,247.48722)">
      <g
         style="fill:#ffffff"
         transform="translate(-238.74009,-670.34166)"
         id="g1657">
        <path
           style="color:#000000;font-style:normal;font-variant:normal;font-weight:normal;font-stretch:normal;font-size:medium;line-height:normal;font-family:sans-serif;font-variant-ligatures:normal;font-variant-position:normal;font-variant-caps:normal;font-variant-numeric:normal;font-variant-alternates:normal;font-feature-settings:normal;text-indent:0;text-align:start;text-decoration:none;text-decoration-line:none;text-decoration-style:solid;text-decoration-color:#000000;letter-spacing:normal;word-spacing:normal;text-transform:none;writing-mode:lr-tb;direction:ltr;text-orientation:mixed;dominant-baseline:auto;baseline-shift:baseline;text-anchor:start;white-space:normal;shape-padding:0;clip-rule:nonzero;display:inline;overflow:visible;visibility:visible;opacity:1;isolation:auto;mix-blend-mode:normal;color-interpolation:sRGB;color-interpolation-filters:linearRGB;solid-color:#000000;solid-opacity:1;vector-effect:none;fill:#ffffff;fill-opacity:1;fill-rule:nonzero;stroke:none;stroke-width:8.24974918;stroke-linecap:butt;stroke-linejoin:miter;stroke-miterlimit:4;stroke-dasharray:none;stroke-dashoffset:0;stroke-opacity:1;color-rendering:auto;image-rendering:auto;shape-rendering:auto;text-rendering:auto;enable-background:accumulate"
           d="m 116.15479,649.83461 -0.005,0.005 2.91627,2.92052 43.76503,43.76506 46.66854,-46.68558 -0.005,-0.005 h -11.66929 l 0.005,0.005 -34.99925,35.01629 -35.01631,-35.01629 0.005,-0.005 z"
           id="path1587" />
        <path
           style="color:#000000;font-style:normal;font-variant:normal;font-weight:normal;font-stretch:normal;font-size:medium;line-height:normal;font-family:sans-serif;font-variant-ligatures:normal;font-variant-position:normal;font-variant-caps:normal;font-variant-numeric:normal;font-variant-alternates:normal;font-feature-settings:normal;text-indent:0;text-align:start;text-decoration:none;text-decoration-line:none;text-decoration-style:solid;text-decoration-color:#000000;letter-spacing:normal;word-spacing:normal;text-transform:none;writing-mode:lr-tb;direction:ltr;text-orientation:mixed;dominant-baseline:auto;baseline-shift:baseline;text-anchor:start;white-space:normal;shape-padding:0;clip-rule:nonzero;display:inline;overflow:visible;visibility:visible;opacity:1;isolation:auto;mix-blend-mode:normal;color-interpolation:sRGB;color-interpolation-filters:linearRGB;solid-color:#000000;solid-opacity:1;vector-effect:none;fill:#ffffff;fill-opacity:1;fill-rule:nonzero;stroke:none;stroke-width:8.2490406;stroke-linecap:butt;stroke-linejoin:miter;stroke-miterlimit:4;stroke-dasharray:none;stroke-dashoffset:0;stroke-opacity:1;color-rendering:auto;image-rendering:auto;shape-rendering:auto;text-rendering:auto;enable-background:accumulate"
           d="m 92.816252,649.83461 2.91626,2.92052 11.669258,11.66925 5.83251,-5.83676 -8.74874,-8.75301 z m 128.366148,0 -29.17101,29.18382 5.81972,5.82394 34.99924,-35.00776 z m -102.1156,14.58551 -5.83678,5.8325 11.67351,11.67352 5.82823,-5.83676 z m 17.50603,17.50174 -5.83679,5.83677 32.09579,32.09581 17.50602,-17.5103 -3.6794,-3.68369 -0.009,0.008 -2.15312,-2.15309 -11.66499,11.66925 z m 49.58901,2.92904 -5.82399,5.824 5.82825,5.83676 5.83675,-5.84102 -2.9077,-2.90773 -0.008,0.008 z"
           id="path1589" />
        <path
           id="path1591"
           transform="matrix(0.26458333,0,0,0.26458333,92.81625,610.15944)"
           d="M 264.60156 0 L 233.37695 31.205078 L 252.39453 49.962891 L 264.60156 37.765625 L 296.16016 69.300781 L 277.27539 88.21875 L 315.04883 88.21875 L 333.94727 69.300781 L 264.60156 0 z M 214.49219 50.078125 L 195.5918 68.966797 L 195.25195 69.306641 L 195.93164 69.306641 L 214.49414 87.884766 L 214.47461 87.884766 L 233.37891 106.80469 L 233.41211 106.80469 L 264.25391 137.64648 L 264.25391 137.62891 L 276.93555 150.29688 L 295.81641 169.21484 L 314.6875 187.62305 L 333.26562 168.875 L 314.70117 150.29688 L 295.82031 131.37891 L 295.7793 131.37891 L 252.26367 87.878906 L 233.37891 68.962891 L 214.49219 50.078125 z M 214.14648 149.95703 L 195.24805 168.875 L 264.59375 238.17969 L 295.67578 206.8125 L 276.93359 188.08203 L 264.59375 200.41016 L 233.03516 168.875 L 251.91992 149.95703 L 214.14648 149.95703 z "
           style="color:#000000;font-style:normal;font-variant:normal;font-weight:normal;font-stretch:normal;font-size:medium;line-height:normal;font-family:sans-serif;font-variant-ligatures:normal;font-variant-position:normal;font-variant-caps:normal;font-variant-numeric:normal;font-variant-alternates:normal;font-feature-settings:normal;text-indent:0;text-align:start;text-decoration:none;text-decoration-line:none;text-decoration-style:solid;text-decoration-color:#000000;letter-spacing:normal;word-spacing:normal;text-transform:none;writing-mode:lr-tb;direction:ltr;text-orientation:mixed;dominant-baseline:auto;baseline-shift:baseline;text-anchor:start;white-space:normal;shape-padding:0;clip-rule:nonzero;display:inline;overflow:visible;visibility:visible;opacity:1;isolation:auto;mix-blend-mode:normal;color-interpolation:sRGB;color-interpolation-filters:linearRGB;solid-color:#000000;solid-opacity:1;vector-effect:none;fill:#ffffff;fill-opacity:1;fill-rule:nonzero;stroke:none;stroke-width:26.70821953;stroke-linecap:butt;stroke-linejoin:miter;stroke-miterlimit:4;stroke-dasharray:none;stroke-dashoffset:0;stroke-opacity:1;color-rendering:auto;image-rendering:auto;shape-rendering:auto;text-rendering:auto;enable-background:accumulate" />
      </g>
    </g>
  </g>
</svg>
