<svg xmlns:dc="http://purl.org/dc/elements/1.1/" xmlns:cc="http://creativecommons.org/ns#" xmlns:rdf="http://www.w3.org/1999/02/22-rdf-syntax-ns#" xmlns:svg="http://www.w3.org/2000/svg" xmlns="http://www.w3.org/2000/svg" xmlns:xlink="http://www.w3.org/1999/xlink" xmlns:sodipodi="http://sodipodi.sourceforge.net/DTD/sodipodi-0.dtd" xmlns:inkscape="http://www.inkscape.org/namespaces/inkscape" width="100%" height="100%" viewBox="0 0 36 36" version="1.1" xml:space="preserve" id="svg1211" sodipodi:docname="wit2.svg" inkscape:version="1.0.2-2 (e86c870879, 2021-01-15)"><metadata id="metadata1217"><rdf:rdf><cc:work rdf:about=""><dc:format>image/svg+xml</dc:format><dc:type rdf:resource="http://purl.org/dc/dcmitype/StillImage"></dc:type><dc:title></dc:title></cc:work></rdf:rdf></metadata><defs id="defs1215"><clipPath id="SVGID_2_"><use xlink:href="#SVGID_1_" overflow="visible" id="use118" x="0" y="0" width="100%" height="100%"></use></clipPath><clipPath id="clipPath2122"><use xlink:href="#SVGID_1_" overflow="visible" id="use2120" x="0" y="0" width="100%" height="100%"></use></clipPath><clipPath id="clipPath2126"><use xlink:href="#SVGID_1_" overflow="visible" id="use2124" x="0" y="0" width="100%" height="100%"></use></clipPath><clipPath id="clipPath2130"><use xlink:href="#SVGID_1_" overflow="visible" id="use2128" x="0" y="0" width="100%" height="100%"></use></clipPath><rect id="SVGID_1_" width="651.96899" height="425.19699" x="0" y="0"></rect></defs><sodipodi:namedview pagecolor="#ffffff" bordercolor="#666666" borderopacity="1" objecttolerance="10" gridtolerance="10" guidetolerance="10" inkscape:pageopacity="0" inkscape:pageshadow="2" inkscape:window-width="1920" inkscape:window-height="1137" id="namedview1213" showgrid="false" inkscape:zoom="3.5" inkscape:cx="139.09027" inkscape:cy="88.199136" inkscape:window-x="-8" inkscape:window-y="-8" inkscape:window-maximized="1" inkscape:current-layer="svg1211" inkscape:document-rotation="0"></sodipodi:namedview>
<g id="g129" transform="matrix(0.10739567,0,0,0.10739567,-17.002295,-4.7678567)" style="fill:#000000"><defs id="defs116"><rect id="rect2176" width="651.96899" height="425.19699" x="0" y="0"></rect></defs><clipPath id="clipPath2138"><use xlink:href="#SVGID_1_" overflow="visible" id="use2136" x="0" y="0" width="100%" height="100%"></use></clipPath><path clip-path="url(#SVGID_2_)" fill="#DB3B2B" d="m 209.429,308.665 c -7.809,-1.257 -15.317,-2.608 -22.602,-4.093 2.28,3.558 4.691,6.969 7.193,10.272 4.403,5.831 9.133,11.408 14.27,16.639 12.421,12.68 26.847,23.34 42.676,31.498 10.181,5.202 20.964,9.416 32.207,12.426 -4.18,-3.625 -8.15,-7.597 -12.002,-11.904 -8.059,-9.135 -15.436,-19.768 -21.764,-31.806 -1.717,-3.277 -3.355,-6.701 -4.941,-10.205 -1.284,-2.796 -2.515,-5.631 -3.642,-8.533 -10.744,-1.218 -21.227,-2.635 -31.395,-4.294 m 13.916,-87.727 h -63.274 c 0.55,10.767 2.122,21.293 4.533,31.432 2.673,11.127 6.433,21.841 11.177,32.046 9.657,2.247 19.838,4.307 30.451,6.126 9.146,1.578 18.593,2.983 28.289,4.187 -3.196,-10.593 -5.791,-21.922 -7.612,-33.905 -1.992,-12.534 -3.197,-25.882 -3.564,-39.886 m -17.113,-87.062 c -10.613,1.825 -20.794,3.898 -30.451,6.145 -4.744,10.186 -8.543,20.906 -11.177,32.014 -2.411,10.185 -3.983,20.707 -4.533,31.488 h 63.274 c 0.367,-14.061 1.572,-27.396 3.564,-39.955 1.821,-11.971 4.416,-23.279 7.573,-33.885 -9.657,1.225 -19.104,2.636 -28.25,4.193 m 76.941,-84.831 c -11.243,2.982 -22.026,7.182 -32.207,12.412 -15.829,8.118 -30.255,18.798 -42.676,31.498 -5.137,5.216 -9.919,10.78 -14.27,16.598 -2.502,3.317 -4.913,6.755 -7.193,10.306 7.285,-1.478 14.832,-2.856 22.602,-4.1 10.26,-1.652 20.69,-3.089 31.395,-4.266 1.127,-2.903 2.332,-5.752 3.642,-8.534 1.586,-3.557 3.224,-6.968 4.941,-10.232 6.328,-12.051 13.705,-22.69 21.764,-31.819 3.852,-4.306 7.874,-8.279 12.002,-11.863 m 3.499,58.769 c 9.787,-0.481 19.759,-0.802 29.94,-0.909 V 47.434 c -9.408,4.42 -18.332,10.64 -26.534,18.598 -9.657,9.336 -18.37,21.032 -25.669,34.942 -1.179,2.3 -2.45,4.728 -3.616,7.243 l -0.603,1.351 c 8.661,-0.716 17.506,-1.339 26.482,-1.754 m -46.28,95.709 h 76.22 V 124.28 c -10.614,0.12 -21.149,0.455 -31.5,0.99 -10.902,0.548 -21.594,1.364 -32.089,2.367 -3.787,11.168 -6.827,23.38 -8.962,36.514 -2.084,12.345 -3.329,25.479 -3.669,39.372 m 44.72,95.645 c 10.351,0.521 20.886,0.883 31.5,0.99 v -79.221 h -76.22 c 0.34,13.844 1.585,26.99 3.669,39.336 2.135,13.147 5.175,25.346 8.962,36.501 10.495,1.017 21.187,1.847 32.089,2.394 m 31.5,77.843 V 317.52 c -10.181,-0.108 -20.153,-0.415 -29.94,-0.91 -8.976,-0.442 -17.821,-1.03 -26.482,-1.766 l 0.603,1.323 c 1.088,2.396 2.319,4.829 3.616,7.303 7.299,13.885 16.012,25.587 25.669,34.923 8.202,7.959 17.126,14.19 26.534,18.618" id="path121" style="fill:#000000"></path><path clip-path="url(#SVGID_2_)" fill="#DB3B2B" d="m 337.536,136.69 c -0.642,0 -1.271,0.087 -1.819,0.185 v 24.372 c 0.549,-0.095 1.178,-0.135 1.819,-0.135 23.293,0 42.424,19.262 42.691,42.994 h 23.854 C 403.707,166.892 373.989,136.69 337.536,136.69 m 0,-44.506 c -0.642,0 -1.271,0.091 -1.819,0.091 v 24.358 c 0.549,0 1.178,-0.047 1.819,-0.047 47.323,0 85.944,39.192 86.306,87.521 h 23.842 C 447.228,142.342 398.004,92.184 337.536,92.184 M 491.471,204.106 C 491.19,117.555 422.301,47.433 337.535,47.433 h -1.819 v 24.351 h 1.819 c 71.619,0 129.825,59.352 130.094,132.322 z" id="path123" style="fill:#000000"></path><path clip-path="url(#SVGID_2_)" fill="#DB3B2B" d="m 347.719,204.106 c 6.629,0 12.003,-5.374 12.003,-12.004 0,-6.629 -5.374,-12.003 -12.003,-12.003 -6.629,0 -12.004,5.374 -12.004,12.003 0,6.63 5.375,12.004 12.004,12.004" id="path125" style="fill:#000000"></path><path clip-path="url(#SVGID_2_)" fill="#DB3B2B" d="m 360.625,258.817 c 0.481,-1.789 0.722,-4.82 0.722,-9.096 0,-4.276 -0.216,-7.212 -0.646,-8.811 -0.431,-1.6 -0.974,-2.667 -1.628,-3.206 -0.655,-0.538 -1.404,-0.809 -2.249,-0.809 -0.845,0 -1.6,0.271 -2.262,0.809 -0.663,0.539 -1.178,1.504 -1.541,2.895 -0.481,1.808 -0.722,4.847 -0.722,9.122 0,4.275 0.216,7.212 0.646,8.812 0.431,1.599 0.974,2.662 1.628,3.192 0.655,0.531 1.405,0.796 2.25,0.796 0.845,0 1.599,-0.269 2.261,-0.808 0.664,-0.538 1.177,-1.504 1.541,-2.896 m 0,47.437 c 0.481,-1.79 0.722,-4.822 0.722,-9.097 0,-4.275 -0.216,-7.212 -0.646,-8.812 -0.431,-1.598 -0.974,-2.667 -1.628,-3.206 -0.655,-0.538 -1.404,-0.808 -2.249,-0.808 -0.845,0 -1.6,0.27 -2.262,0.808 -0.663,0.539 -1.178,1.504 -1.541,2.896 -0.481,1.806 -0.722,4.846 -0.722,9.121 0,4.274 0.216,7.212 0.646,8.811 0.43,1.599 0.974,2.663 1.628,3.194 0.655,0.529 1.405,0.795 2.25,0.795 0.845,0 1.599,-0.27 2.261,-0.809 0.664,-0.536 1.177,-1.502 1.541,-2.893 m 28.31,0 c 0.48,-1.79 0.721,-4.822 0.721,-9.097 0,-4.275 -0.216,-7.212 -0.646,-8.812 -0.431,-1.598 -0.974,-2.667 -1.628,-3.206 -0.654,-0.538 -1.403,-0.808 -2.25,-0.808 -0.845,0 -1.599,0.27 -2.261,0.808 -0.663,0.539 -1.177,1.504 -1.541,2.896 -0.48,1.806 -0.721,4.846 -0.721,9.121 0,4.274 0.215,7.212 0.646,8.811 0.432,1.599 0.974,2.663 1.628,3.194 0.655,0.529 1.404,0.795 2.249,0.795 0.847,0 1.6,-0.27 2.263,-0.809 0.662,-0.536 1.175,-1.502 1.54,-2.893 m 0,47.436 c 0.48,-1.79 0.721,-4.821 0.721,-9.097 0,-4.276 -0.216,-7.211 -0.646,-8.81 -0.431,-1.6 -0.974,-2.668 -1.628,-3.207 -0.654,-0.538 -1.403,-0.808 -2.25,-0.808 -0.845,0 -1.599,0.27 -2.261,0.808 -0.663,0.539 -1.177,1.504 -1.541,2.896 -0.48,1.806 -0.721,4.846 -0.721,9.121 0,4.275 0.215,7.212 0.646,8.811 0.432,1.6 0.974,2.664 1.628,3.194 0.655,0.53 1.404,0.795 2.249,0.795 0.847,0 1.6,-0.269 2.263,-0.808 0.662,-0.538 1.175,-1.502 1.54,-2.895 m 28.309,-94.873 c 0.48,-1.789 0.721,-4.82 0.721,-9.096 0,-4.276 -0.216,-7.212 -0.646,-8.811 -0.433,-1.6 -0.975,-2.667 -1.628,-3.206 -0.655,-0.538 -1.405,-0.809 -2.25,-0.809 -0.845,0 -1.6,0.271 -2.261,0.809 -0.663,0.539 -1.178,1.504 -1.541,2.895 -0.481,1.808 -0.722,4.847 -0.722,9.122 0,4.275 0.215,7.212 0.646,8.812 0.431,1.599 0.973,2.662 1.628,3.192 0.654,0.531 1.404,0.796 2.249,0.796 0.845,0 1.599,-0.269 2.262,-0.808 0.663,-0.538 1.176,-1.504 1.542,-2.896 m 28.308,47.437 c 0.48,-1.79 0.721,-4.822 0.721,-9.097 0,-4.275 -0.215,-7.212 -0.646,-8.812 -0.431,-1.598 -0.973,-2.667 -1.628,-3.206 -0.654,-0.538 -1.404,-0.808 -2.249,-0.808 -0.845,0 -1.599,0.27 -2.262,0.808 -0.663,0.539 -1.176,1.504 -1.541,2.896 -0.48,1.806 -0.72,4.846 -0.72,9.121 0,4.274 0.215,7.212 0.646,8.811 0.43,1.599 0.974,2.663 1.628,3.194 0.654,0.529 1.404,0.795 2.249,0.795 0.845,0 1.6,-0.27 2.262,-0.809 0.661,-0.536 1.176,-1.502 1.54,-2.893 m 28.31,-47.437 c 0.479,-1.789 0.72,-4.82 0.72,-9.096 0,-4.276 -0.215,-7.212 -0.646,-8.811 -0.432,-1.6 -0.974,-2.667 -1.628,-3.206 -0.655,-0.538 -1.404,-0.809 -2.249,-0.809 -0.846,0 -1.6,0.271 -2.263,0.809 -0.663,0.539 -1.177,1.504 -1.541,2.895 -0.48,1.808 -0.721,4.847 -0.721,9.122 0,4.275 0.216,7.212 0.647,8.812 0.43,1.599 0.973,2.662 1.628,3.192 0.653,0.531 1.403,0.796 2.249,0.796 0.845,0 1.599,-0.269 2.262,-0.808 0.663,-0.538 1.177,-1.504 1.542,-2.896 m 8.027,-9.096 c 0,6.894 -1.193,11.847 -3.579,14.863 -1.973,2.484 -4.723,3.728 -8.251,3.728 -3.547,0 -6.404,-1.362 -8.575,-4.089 -2.171,-2.725 -3.256,-7.584 -3.256,-14.577 0,-6.858 1.192,-11.797 3.579,-14.813 1.972,-2.485 4.723,-3.729 8.252,-3.729 3.528,0 6.287,1.261 8.275,3.778 2.371,2.984 3.555,7.929 3.555,14.839 m -28.308,47.437 c 0,6.893 -1.193,11.847 -3.579,14.862 -1.972,2.485 -4.723,3.729 -8.252,3.729 -3.546,0 -6.403,-1.363 -8.575,-4.089 -2.17,-2.726 -3.256,-7.584 -3.256,-14.577 0,-6.859 1.194,-11.797 3.58,-14.813 1.971,-2.484 4.723,-3.728 8.251,-3.728 3.529,0 6.288,1.26 8.276,3.777 2.37,2.983 3.555,7.93 3.555,14.839 m -5.767,-29.468 h -6.984 v -26.319 c -2.551,2.386 -5.559,4.149 -9.021,5.294 v -6.338 c 1.822,-0.598 3.803,-1.728 5.94,-3.394 2.137,-1.665 3.604,-3.606 4.399,-5.828 h 5.666 z m -22.542,-17.969 c 0,6.894 -1.193,11.847 -3.579,14.863 -1.972,2.484 -4.722,3.728 -8.252,3.728 -3.546,0 -6.404,-1.362 -8.574,-4.089 -2.171,-2.725 -3.256,-7.584 -3.256,-14.577 0,-6.858 1.192,-11.797 3.579,-14.813 1.971,-2.485 4.722,-3.729 8.251,-3.729 3.53,0 6.288,1.261 8.276,3.778 2.369,2.984 3.555,7.929 3.555,14.839 m -28.31,94.872 c 0,6.893 -1.192,11.848 -3.579,14.863 -1.972,2.484 -4.722,3.728 -8.252,3.728 -3.546,0 -6.403,-1.363 -8.573,-4.088 -2.172,-2.726 -3.257,-7.585 -3.257,-14.577 0,-6.859 1.193,-11.797 3.579,-14.813 1.973,-2.486 4.723,-3.729 8.251,-3.729 3.53,0 6.289,1.259 8.277,3.777 2.37,2.985 3.554,7.93 3.554,14.839 m 0,-47.435 c 0,6.893 -1.192,11.847 -3.579,14.862 -1.972,2.485 -4.722,3.729 -8.252,3.729 -3.546,0 -6.403,-1.363 -8.573,-4.089 -2.172,-2.726 -3.257,-7.584 -3.257,-14.577 0,-6.859 1.193,-11.797 3.579,-14.813 1.973,-2.484 4.723,-3.728 8.251,-3.728 3.53,0 6.289,1.26 8.277,3.777 2.37,2.983 3.554,7.93 3.554,14.839 m -5.765,-29.468 h -6.984 v -26.319 c -2.552,2.386 -5.559,4.149 -9.021,5.294 v -6.338 c 1.821,-0.598 3.803,-1.728 5.939,-3.394 2.138,-1.665 3.604,-3.606 4.399,-5.828 h 5.667 z m -22.543,29.468 c 0,6.893 -1.193,11.847 -3.579,14.862 -1.972,2.485 -4.722,3.729 -8.251,3.729 -3.546,0 -6.405,-1.363 -8.575,-4.089 -2.171,-2.726 -3.256,-7.584 -3.256,-14.577 0,-6.859 1.193,-11.797 3.579,-14.813 1.972,-2.484 4.722,-3.728 8.252,-3.728 3.529,0 6.288,1.26 8.276,3.777 2.368,2.983 3.554,7.93 3.554,14.839 m 0,-47.437 c 0,6.894 -1.193,11.847 -3.579,14.863 -1.972,2.484 -4.722,3.728 -8.251,3.728 -3.546,0 -6.405,-1.362 -8.575,-4.089 -2.171,-2.725 -3.256,-7.584 -3.256,-14.577 0,-6.858 1.193,-11.797 3.579,-14.813 1.972,-2.485 4.722,-3.729 8.252,-3.729 3.529,0 6.288,1.261 8.276,3.778 2.368,2.984 3.554,7.929 3.554,14.839 m -21.773,85.478 c 1.823,-0.597 3.804,-1.728 5.94,-3.393 2.138,-1.665 3.604,-3.607 4.399,-5.828 h 5.666 v 36.585 h -6.983 v -26.32 c -2.552,2.386 -5.56,4.15 -9.022,5.294 z M 403.5,287.762 c 1.822,-0.596 3.802,-1.727 5.94,-3.392 2.137,-1.666 3.604,-3.608 4.398,-5.829 h 5.667 v 36.586 h -6.983 v -26.321 c -2.553,2.386 -5.56,4.151 -9.022,5.294 z m 88.398,-64.509 H 485.216 434.16 337.7 v 0.46 23.543 48.059 17.513 6.044 52.564 6.871 c 0.779,0.013 1.544,0.052 2.322,0.052 40.577,0 78.727,-16.237 107.408,-45.759 28.422,-29.231 44.17,-68.027 44.468,-109.347" id="path127" style="fill:#000000"></path></g></svg>
