<?xml version="1.0" standalone="no"?>
<!DOCTYPE svg PUBLIC "-//W3C//DTD SVG 20010904//EN"
 "http://www.w3.org/TR/2001/REC-SVG-20010904/DTD/svg10.dtd">
<svg version="1.0" xmlns="http://www.w3.org/2000/svg"
 width="736.000000pt" height="736.000000pt" viewBox="0 0 736.000000 736.000000"
 preserveAspectRatio="xMidYMid meet">
<metadata>
Created by potrace 1.14, written by Peter Selinger 2001-2017
</metadata>
<g transform="translate(0.000000,736.000000) scale(0.100000,-0.100000)"
fill="#000000" stroke="none">
<path d="M3679 6898 c-2 -144 -6 -135 92 -233 l89 -90 61 61 60 60 -145 147
c-79 81 -147 147 -150 147 -3 0 -6 -42 -7 -92z"/>
<path d="M4042 6517 l-62 -62 121 -121 121 -121 60 60 59 61 -118 120 c-65 66
-118 121 -118 123 -1 1 -29 -26 -63 -60z"/>
<path d="M3512 6352 c-90 -92 -301 -306 -471 -477 -169 -170 -310 -316 -315
-322 -7 -13 -15 -6 590 -615 l364 -367 379 382 c529 533 581 586 581 592 0 6
-28 35 -581 593 -209 210 -380 382 -382 381 -1 0 -75 -76 -165 -167z m787
-700 c56 -57 101 -105 101 -107 0 -3 -162 -167 -360 -365 l-360 -360 -296 292
c-417 412 -408 403 -422 421 -12 14 31 61 352 381 l365 365 260 -262 c143
-144 305 -308 360 -365z"/>
<path d="M3555 5949 c-68 -68 -125 -132 -125 -142 0 -10 5 -15 10 -12 6 3 10
1 10 -4 0 -28 34 -3 128 94 l102 104 29 -29 c33 -35 42 -37 64 -12 16 17 13
21 -38 72 l-55 54 -125 -125z"/>
<path d="M3806 5899 c-17 -21 -17 -22 25 -64 39 -39 44 -41 61 -26 10 8 18 21
18 27 0 10 -73 84 -83 84 -1 0 -11 -10 -21 -21z"/>
<path d="M3510 5730 c-91 -93 -164 -172 -163 -177 1 -5 76 -85 167 -177 l166
-168 170 170 c94 94 170 173 170 176 0 6 -337 346 -342 345 -2 0 -77 -76 -168
-169z m298 -43 c67 -67 122 -127 122 -131 0 -5 -51 -60 -112 -123 -62 -63
-114 -118 -116 -123 -2 -6 -9 -10 -15 -10 -11 0 -257 244 -257 255 0 8 242
254 250 255 3 0 60 -55 128 -123z"/>
<path d="M3630 5685 c-50 -50 -34 -63 17 -13 27 26 35 29 48 18 13 -10 15 -9
15 8 0 16 -17 32 -34 32 -1 0 -22 -20 -46 -45z"/>
<path d="M3726 5671 c-4 -6 3 -15 14 -21 23 -12 27 2 6 19 -9 8 -16 8 -20 2z"/>
<path d="M3650 5645 c-14 -14 -37 -37 -52 -52 -16 -14 -28 -31 -28 -37 0 -6
25 -35 56 -65 l56 -54 54 54 c30 29 54 58 54 65 0 11 -98 114 -109 114 -4 0
-18 -11 -31 -25z m78 -48 l42 -43 -45 -44 -46 -45 -43 45 -44 45 41 43 c23 23
44 42 47 42 3 0 25 -19 48 -43z"/>
<path d="M3770 5626 c0 -9 14 -29 30 -43 29 -24 30 -27 15 -43 -24 -27 -1 -33
23 -7 23 25 22 27 -31 76 -29 27 -37 31 -37 17z"/>
<path d="M3566 5621 c-3 -5 1 -11 9 -15 8 -3 15 -1 15 4 0 13 -18 22 -24 11z"/>
<path d="M3522 5577 l-22 -23 38 -37 c21 -20 41 -37 45 -37 15 0 6 20 -23 46
-27 26 -28 30 -14 45 24 26 0 31 -24 6z"/>
<path d="M3776 5501 c-4 -5 -2 -12 3 -15 5 -4 12 -2 15 3 4 5 2 12 -3 15 -5 4
-12 2 -15 -3z"/>
<path d="M3717 5443 c-30 -31 -38 -35 -51 -24 -13 11 -16 11 -16 -2 0 -8 7
-20 16 -28 13 -11 22 -6 61 33 25 25 41 48 36 51 -5 3 -26 -10 -46 -30z"/>
<path d="M3600 5461 c0 -13 26 -32 33 -24 8 7 -11 33 -24 33 -5 0 -9 -4 -9 -9z"/>
<path d="M3935 5769 c-19 -19 -18 -20 78 -117 l97 -98 -40 -39 c-46 -45 -48
-55 -19 -73 20 -13 26 -9 80 47 33 33 59 63 59 66 0 8 -223 235 -230 234 -3 0
-14 -9 -25 -20z"/>
<path d="M3360 5750 l-24 -21 22 -22 22 -21 21 21 c21 21 21 21 2 42 l-20 21
-23 -20z"/>
<path d="M3228 5618 c-32 -33 -58 -62 -58 -64 0 -3 52 -56 115 -119 113 -113
135 -126 150 -87 4 11 -18 40 -72 96 -43 44 -86 86 -96 94 -16 12 -14 17 27
60 44 46 44 46 24 64 -12 10 -24 18 -27 17 -3 0 -32 -28 -63 -61z"/>
<path d="M3956 5401 c-17 -18 -17 -20 4 -41 21 -21 23 -21 41 -4 23 21 24 28
3 48 -20 21 -27 20 -48 -3z"/>
<path d="M3787 5230 c-54 -55 -103 -100 -109 -100 -5 0 -19 11 -30 25 -22 29
-34 31 -54 11 -20 -21 -18 -26 36 -80 l49 -50 38 35 c21 19 78 76 128 127 75
78 88 95 79 110 -6 9 -17 18 -25 20 -8 1 -58 -43 -112 -98z"/>
<path d="M3466 5294 c-22 -21 -21 -23 24 -69 l40 -40 22 22 22 23 -39 40 c-44
45 -47 46 -69 24z"/>
<path d="M4398 6150 l-57 -59 242 -245 c133 -134 254 -257 270 -273 l27 -29
-116 -117 c-64 -64 -114 -121 -112 -126 1 -5 27 -35 56 -65 l53 -55 180 180
c177 178 180 182 162 201 -44 50 -639 648 -643 648 -3 -1 -31 -28 -62 -60z"/>
<path d="M4462 5120 l-61 -61 61 -61 61 -60 59 60 60 61 -60 61 -60 61 -60
-61z"/>
<path d="M4239 4896 c-19 -19 -152 -153 -297 -299 l-263 -265 0 -112 c0 -62 2
-114 5 -117 2 -2 99 91 216 209 116 117 276 279 356 359 l146 146 -55 56 c-30
32 -59 57 -65 57 -5 0 -25 -15 -43 -34z"/>
<path d="M33 3942 c-30 -3 -16 -18 347 -378 208 -207 381 -376 385 -376 7 -1
288 273 299 291 3 5 -96 111 -222 235 l-227 226 -100 0 c-55 1 -179 2 -275 3
-96 1 -189 1 -207 -1z"/>
<path d="M1287 3940 l-58 -5 706 -700 c389 -385 878 -870 1088 -1078 210 -208
444 -439 519 -514 l136 -136 349 346 c191 190 512 508 713 707 201 199 596
591 878 871 l513 509 -63 1 c-239 1 -552 -2 -557 -7 -3 -3 -406 -402 -895
-887 -489 -485 -899 -893 -912 -907 l-24 -25 -117 117 c-65 64 -265 262 -445
440 -179 178 -541 536 -803 796 l-476 472 -72 1 c-40 0 -151 1 -247 2 -96 1
-201 0 -233 -3z"/>
<path d="M6738 3931 c-7 -8 -353 -351 -768 -762 l-755 -748 150 -151 c83 -82
153 -149 157 -147 4 1 341 333 749 737 407 404 817 810 910 902 93 92 169 171
169 175 0 5 -135 8 -300 8 -244 0 -302 -3 -312 -14z"/>
<path d="M1227 3032 c-81 -81 -147 -150 -147 -155 0 -4 91 -98 203 -208 111
-110 247 -245 303 -300 l101 -101 153 152 153 152 -306 304 c-168 167 -307
304 -309 303 -2 0 -69 -66 -151 -147z"/>
<path d="M2150 2120 c-82 -82 -150 -152 -150 -156 0 -4 177 -182 393 -396 215
-214 592 -587 835 -829 244 -241 448 -439 453 -439 5 0 193 183 419 407 225
224 413 409 417 413 5 3 25 24 45 46 l38 40 -153 151 -153 152 -302 -300
c-166 -164 -306 -299 -312 -299 -5 0 -204 192 -440 428 -237 235 -546 540
-686 679 l-254 251 -150 -148z"/>
<path d="M4752 1962 l-151 -148 147 -147 c81 -81 150 -149 153 -152 4 -3 75
62 159 145 l153 151 -44 45 c-94 97 -250 249 -258 252 -5 2 -76 -64 -159 -146z"/>
</g>
</svg>
